<svg version="1.1" id="Capa_2_00000031205038009542518240000001873388512975122312_"
	 xmlns="http://www.w3.org/2000/svg" xmlns:xlink="http://www.w3.org/1999/xlink" x="0px" y="0px" viewBox="0 0 1080 776.9"
	 style="enable-background:new 0 0 1080 776.9;" xml:space="preserve">
<style type="text/css">
	.st0{fill:none;}
	.st1{fill:#F9A70B;}
	.st2{enable-background:new    ;}
	.st3{fill:#FADC5C;}
</style>
<g>
	<path class="st0" d="M622.1,125.8c0,0,37.9,1.2,53.5,1.6c-5.2-26.9-28.8-47.2-57.2-47.2c-30.5,0-55.5,23.4-58,53.2l11-0.9
		L622.1,125.8z"/>
	<path fill='#F9A70B' d="M940.4,411.6c-4.7-140-103.2-256.8-234.6-289.1c-7.5-41.4-43.8-72.8-87.4-72.8c-46.5,0-84.6,35.7-88.5,81.2
		C472,151.2,422,188.2,385.7,236.3c-1,1.3-0.5,3.1,0.9,3.8c1.1,0.5,2.4,0.3,3.1-0.7c52.5-63.7,132-104.4,221-104.4
		c158,0,286.1,128.1,286.1,286.1c0,20.7-2.2,40.9-6.4,60.3c-0.3,1.6,0.9,3.1,2.5,3.1H932c1.2,0,2.3-0.9,2.5-2.1
		C939.1,459.7,941.2,435.9,940.4,411.6z M562.7,121.4c7.3-23.8,29.5-41.1,55.7-41.1c24.3,0,45.1,14.8,53.8,36
		c-9.5-1.2-19.1-2.1-28.8-2.4C615.6,112.8,588.5,115.5,562.7,121.4z"/>
	<path fill='#F9A70B' d="M953.3,531.8H292.4c-8,0-14.5-6.5-14.5-14.5l0,0c0-8,6.5-14.5,14.5-14.5h660.9c8,0,14.5,6.5,14.5,14.5l0,0
		C967.8,525.3,961.3,531.8,953.3,531.8z"/>
	<path fill='#F9A70B' d="M746.6,398.1H615.2v-79.4c0-7.3-6-13.3-13.3-13.3s-13.3,6-13.3,13.3v92.7c0,7.3,6,13.3,13.3,13.3
		c0.1,0,0.2,0,0.2,0c0.1,0,0.2,0,0.2,0h144.2c7.3,0,13.3-6,13.3-13.3S753.9,398.1,746.6,398.1z"/>
	<path fill='#F9A70B' d="M81.3,321.8h230.8c7.3,0,13.3,6,13.3,13.3v2.7c0,7.3-6,13.3-13.3,13.3H81.3c-7.3,0-13.3-6-13.3-13.3v-2.7
		C68,327.8,73.9,321.8,81.3,321.8z"/>
	<path fill='#F9A70B' d="M152,382.3h160.1c7.3,0,13.3,6,13.3,13.3v2.7c0,7.3-6,13.3-13.3,13.3H152c-7.3,0-13.3-6-13.3-13.3v-2.7
		C138.7,388.3,144.6,382.3,152,382.3z"/>
	<path fill='#F9A70B' d="M152,454.1h133.1c7.3,0,13.3,6,13.3,13.3v2.7c0,7.3-6,13.3-13.3,13.3H152c-7.3,0-13.3-6-13.3-13.3v-2.7
		C138.7,460.1,144.6,454.1,152,454.1z"/>
	<path fill='#F9A70B' d="M168.9,260.6H302c7.3,0,13.3,6,13.3,13.3v2.7c0,7.3-6,13.3-13.3,13.3H168.9c-7.3,0-13.3-6-13.3-13.3v-2.7
		C155.6,266.5,161.5,260.6,168.9,260.6z"/>
	<path fill='#F9A70B' d="M501.6,254.7l-15.2-26.3c-3.1-5.4-1.3-12.4,4.2-15.6l0,0c5.4-3.1,12.4-1.3,15.6,4.2l15.2,26.3
		c3.1,5.4,1.3,12.4-4.2,15.6l0,0C511.7,262,504.8,260.2,501.6,254.7z"/>
	<path fill='#F9A70B' d="M688.6,246.4l7.9-29.4c1.6-6.1,7.9-9.7,13.9-8.1l0,0c6.1,1.6,9.7,7.9,8.1,13.9l-7.9,29.4
		c-1.6,6.1-7.9,9.7-13.9,8.1l0,0C690.6,258.8,687,252.5,688.6,246.4z"/>
	<path fill='#F9A70B' d="M755.9,309.6l26.3-15.2c5.4-3.1,12.4-1.3,15.6,4.2l0,0c3.1,5.4,1.3,12.4-4.2,15.6l-26.3,15.2
		c-5.4,3.1-12.4,1.3-15.6-4.2l0,0C748.6,319.7,750.5,312.7,755.9,309.6z"/>
	<path fill='#F9A70B' d="M439,328.1l-26.3-15.2c-5.4-3.1-7.3-10.1-4.2-15.6l0,0c3.1-5.4,10.1-7.3,15.6-4.2l26.3,15.2
		c5.4,3.1,7.3,10.1,4.2,15.6l0,0C451.4,329.3,444.4,331.2,439,328.1z"/>
	<path fill='#F9A70B' d="M419.1,421.1h-30.4c-6.3,0-11.4-5.1-11.4-11.4l0,0c0-6.3,5.1-11.4,11.4-11.4h30.4c6.3,0,11.4,5.1,11.4,11.4
		l0,0C430.5,416,425.4,421.1,419.1,421.1z"/>
	<path fill='#F9A70B' d="M820.9,421.1h-30.4c-6.3,0-11.4-5.1-11.4-11.4l0,0c0-6.3,5.1-11.4,11.4-11.4h30.4c6.3,0,11.4,5.1,11.4,11.4
		l0,0C832.2,416,827.2,421.1,820.9,421.1z"/>
	<path fill='#F9A70B' d="M615,193.8v30.4c0,6.3-5.1,11.4-11.4,11.4l0,0c-6.3,0-11.4-5.1-11.4-11.4v-30.4c0-6.3,5.1-11.4,11.4-11.4l0,0
		C609.9,182.5,615,187.5,615,193.8z"/>
	<path fill='#F9A70B' d="M345.7,317l30.6,13.6l-7.2-27.7l-7.2-27.7l-25.4,13.2l-25.4,13.2l28,12.5c-14.3,35.2-22.3,73.7-22.3,114.1
		c0,19.9,1.9,39.4,5.6,58.3h14.9c-5.4-22.6-8.3-46.3-8.3-70.5C329.1,381.2,335,347.9,345.7,317z"/>
</g>
<g class="st2">
	<path fill='#F9A70B' d="M265.8,652.8c-4.6,0-8.8-0.9-12.8-2.6c-4-1.7-7.4-4.2-10.4-7.5c-3-3.3-5.3-7.4-7-12.2
		c-1.7-4.8-2.5-10.4-2.5-16.6c0-6.2,0.8-11.8,2.5-16.6c1.7-4.8,4-8.9,6.9-12.2s6.4-5.8,10.4-7.5c4-1.7,8.2-2.5,12.8-2.5
		c4.6,0,8.9,0.8,12.9,2.5c4,1.7,7.4,4.2,10.4,7.5s5.3,7.3,6.9,12.2c1.7,4.8,2.5,10.3,2.5,16.6c0,6.2-0.8,11.8-2.5,16.6
		c-1.7,4.8-4,8.9-7,12.2c-3,3.3-6.5,5.8-10.4,7.5C274.7,652,270.4,652.8,265.8,652.8z M265.8,641.7c3.5,0,6.8-1,9.6-2.9
		c2.9-1.9,5.1-4.9,6.8-9c1.7-4.1,2.5-9.4,2.5-15.9c0-6.6-0.9-11.8-2.6-15.9c-1.7-4-4-7-6.9-8.9c-2.9-1.9-6.1-2.8-9.6-2.8
		c-3.4,0-6.6,0.9-9.5,2.8c-2.9,1.9-5.2,4.8-6.9,8.9c-1.7,4-2.6,9.3-2.6,15.9c0,6.6,0.9,11.9,2.6,16c1.7,4.1,4,7.1,6.9,9
		C259.2,640.7,262.3,641.7,265.8,641.7z M259.8,651.2h11.5c0,1.8,0.6,3.3,1.8,4.5s2.6,2.2,4.2,2.9c1.7,0.7,3.2,1.3,4.7,1.6
		c1.5,0.4,2.5,0.6,3.1,0.7l-3.9,9.1c-0.6-0.1-1.7-0.3-3.3-0.6c-1.6-0.3-3.4-0.8-5.5-1.6s-4-1.8-6-3.2c-1.9-1.4-3.5-3.2-4.8-5.4
		C260.4,657,259.8,654.3,259.8,651.2z"/>
	<path fill='#F9A70B' d="M329.3,652.7c-3.9,0-7.1-0.6-9.6-1.9c-2.5-1.3-4.5-3-6-5.1c-1.5-2.1-2.5-4.5-3.1-7c-0.6-2.6-0.9-5.1-0.9-7.7
		c0-1.3,0-2.6,0-3.9c0-1.4,0-2.7,0-4.1v-25.5h13.5v23.4c0,1.2,0,2.4,0,3.5s0,2.2,0,3.2c0,2.4,0.3,4.7,0.9,6.7c0.6,2.1,1.6,3.7,3.2,5
		c1.6,1.3,3.7,1.9,6.6,1.9c2.7,0,5-0.8,7-2.4c1.9-1.6,3.5-3.6,4.5-6c1.1-2.4,1.6-4.9,1.6-7.4l4.6,3.1c0,3.3-0.5,6.4-1.5,9.3
		c-1,2.9-2.5,5.5-4.5,7.8s-4.3,4-7,5.3C335.9,652.1,332.8,652.7,329.3,652.7z M347.1,651.7v-54.4h13.5v54.4H347.1z"/>
	<path fill='#F9A70B' d="M380,587.3c-2.2,0-4.1-0.6-5.7-1.8c-1.6-1.2-2.4-2.8-2.4-4.9c0-2.1,0.8-3.7,2.4-4.9c1.6-1.2,3.5-1.7,5.7-1.7
		c2.1,0,4,0.6,5.6,1.7c1.6,1.2,2.4,2.8,2.4,4.9c0,2.1-0.8,3.8-2.4,4.9C384,586.7,382.1,587.3,380,587.3z M373.3,651.7v-54.4h13.3
		v54.4H373.3z"/>
	<path fill='#F9A70B' d="M426.7,652.8c-5.7,0-10.8-1.2-15.2-3.5c-4.4-2.4-7.8-5.7-10.3-9.9c-2.5-4.3-3.7-9.3-3.7-15
		c0-5.7,1.2-10.6,3.7-14.8c2.5-4.2,5.9-7.4,10.3-9.7c4.4-2.3,9.5-3.4,15.2-3.4c4.3,0,8.1,0.6,11.4,1.9c3.3,1.3,6.1,2.9,8.4,5
		c2.3,2.1,4,4.4,5.2,6.9c1.2,2.5,1.8,5,1.8,7.5c0,0.1,0,0.1,0,0.2s0,0.1,0,0.2h-13.4c0-0.2,0-0.4-0.1-0.6c0-0.2-0.1-0.4-0.1-0.6
		c-0.3-1.7-1-3.3-2.1-4.7c-1.1-1.4-2.6-2.6-4.5-3.4c-1.9-0.9-4.1-1.3-6.8-1.3c-2.8,0-5.4,0.6-7.8,1.9c-2.3,1.2-4.2,3.1-5.6,5.6
		c-1.4,2.5-2.1,5.6-2.1,9.3c0,3.7,0.7,6.8,2,9.4c1.4,2.6,3.2,4.5,5.6,5.9c2.3,1.3,4.9,2,7.8,2c3,0,5.5-0.5,7.4-1.4
		c1.9-0.9,3.4-2.2,4.4-3.8c1-1.6,1.6-3.3,1.7-5.2h13.4c0,2.5-0.6,5.1-1.7,7.6c-1.2,2.5-2.9,4.9-5.1,7c-2.3,2.1-5,3.8-8.4,5.1
		C435,652.2,431.1,652.8,426.7,652.8z"/>
	<path fill='#F9A70B' d="M464.6,651.7v-80h12.8v46.9l-2.9-1.4l22.5-19.8h16.7L487.1,621l3-5.5l23.3,36.2h-14.2l-17.9-29l3.3,0.6
		l-8.7,7.8l1.5-6v26.7H464.6z"/>
	<path fill='#F9A70B' d="M535.2,571.7v80h-13.3v-80H535.2z"/>
	<path fill='#F9A70B' d="M552.5,675c-1.6,0-3-0.1-4.3-0.2s-2-0.3-2.4-0.4v-10.5c0.4,0.2,1.2,0.4,2.3,0.5c1.1,0.1,2.2,0.2,3.4,0.2
		c1.9,0,3.5-0.4,4.9-1.1c1.4-0.8,2.6-1.8,3.6-3.1c1-1.3,1.8-2.8,2.4-4.6l1.2-3.4l-18.7-55h14.1l12.8,45.3H570l12.5-45.3h13.8
		l-19,57.7c-1.3,4-2.9,7.5-4.8,10.5c-1.9,3-4.4,5.3-7.5,7C561.8,674.2,557.7,675,552.5,675z"/>
	<path fill='#F9A70B' d="M655.1,652.8c-5.4,0-10-0.9-14-2.6c-4-1.7-7.1-4.3-9.3-7.7c-2.2-3.4-3.3-7.7-3.3-12.8c0-0.6,0-1.1,0-1.6
		c0-0.5,0-1,0-1.6h13.5c0,0.5,0,1,0,1.4s0,0.9,0,1.5c0,4.1,1.1,7.2,3.4,9.2c2.2,2,5.5,3,9.9,3c4.4,0,7.8-0.7,10.1-2.2
		c2.3-1.5,3.5-3.8,3.5-7.1c0-2.4-0.8-4.4-2.4-6c-1.6-1.7-3.8-3.1-6.5-4.4c-2.8-1.3-5.9-2.4-9.4-3.5c-4-1.2-7.6-2.8-10.8-4.8
		c-3.2-1.9-5.8-4.4-7.8-7.4c-1.9-3-2.9-6.6-2.9-11c0-4.3,1.1-8,3.4-11.1c2.2-3,5.3-5.3,9.2-6.9s8.4-2.4,13.3-2.4
		c5.2,0,9.8,0.8,13.8,2.5c4,1.6,7.1,4.1,9.3,7.3c2.3,3.2,3.4,7.3,3.4,12.1c0,0.6,0,1.2,0,1.7c0,0.5,0,1,0,1.6h-13.5
		c0-0.4,0-0.9,0-1.4s0-0.9,0-1.4c0-3.9-1.1-6.8-3.2-8.6c-2.1-1.9-5.3-2.8-9.6-2.8c-4.2,0-7.4,0.7-9.7,2.2c-2.3,1.5-3.4,3.8-3.4,7
		c0,2.4,0.8,4.4,2.3,6c1.5,1.6,3.6,3,6.3,4.2c2.7,1.2,5.7,2.4,9.1,3.6c4.5,1.5,8.5,3.2,11.8,5.1c3.3,1.9,5.9,4.2,7.7,7.1
		c1.8,2.8,2.7,6.4,2.7,10.7c0,4.4-1.1,8.2-3.4,11.3c-2.2,3.1-5.4,5.4-9.4,7.1C665.2,652,660.5,652.8,655.1,652.8z"/>
	<path fill='#F9A70B' d="M698.2,628.9v-9.6h38l-1.5,2.6c0-0.2,0-0.4,0-0.7s0-0.5,0-0.6c0-2.4-0.5-4.6-1.6-6.6s-2.7-3.7-4.8-5
		c-2.2-1.3-4.9-1.9-8.2-1.9c-3.3,0-6.1,0.7-8.5,2.1s-4.3,3.4-5.6,6c-1.3,2.6-2,5.7-2,9.3c0,3.7,0.6,6.9,1.9,9.6
		c1.3,2.7,3.1,4.7,5.6,6.1c2.4,1.4,5.4,2.1,8.9,2.1c2.4,0,4.5-0.2,6.2-0.7c1.7-0.4,3.2-1,4.3-1.8c1.1-0.8,1.9-1.6,2.5-2.5
		c0.6-0.9,0.9-1.8,1-2.7h13.4c-0.2,2.3-1,4.5-2.3,6.7s-3.1,4.1-5.5,5.9c-2.4,1.8-5.2,3.2-8.6,4.2c-3.4,1-7.2,1.6-11.5,1.6
		c-5.8,0-10.9-1.2-15.3-3.6s-7.8-5.7-10.2-10c-2.4-4.3-3.7-9.1-3.7-14.6c0-5.6,1.2-10.6,3.7-14.8c2.5-4.2,5.9-7.5,10.3-9.9
		c4.4-2.4,9.5-3.6,15.1-3.6c5.9,0,10.9,1.2,15.2,3.6c4.3,2.4,7.6,5.7,9.9,10c2.3,4.2,3.5,9.2,3.5,14.8c0,0.7,0,1.5-0.1,2.3
		s-0.1,1.4-0.2,1.8H698.2z"/>
	<path fill='#F9A70B' d="M759.7,651.7v-54.4h13.5v18.1l-3.1-1.7c0.3-2.4,1-4.6,1.9-6.7s2.1-3.9,3.7-5.5c1.5-1.6,3.4-2.8,5.6-3.7
		c2.2-0.9,4.7-1.3,7.5-1.3c2.2,0,4,0.2,5.2,0.5c1.3,0.3,2.1,0.6,2.4,0.8l-2.5,12.3c-0.3-0.2-1-0.5-2.1-0.9c-1-0.4-2.4-0.5-4.2-0.5
		c-2.8,0-5.1,0.5-6.9,1.4c-1.9,0.9-3.3,2.2-4.4,3.8c-1.1,1.6-1.9,3.3-2.4,5.2c-0.5,1.9-0.7,3.8-0.7,5.7v27H759.7z"/>
	<path fill='#F9A70B' d="M852.5,597.3l-17,54.4h-18.1l-17.5-54.4h13.9l13.7,49.6h-2.1l13.2-49.6H852.5z"/>
	<path fill='#F9A70B' d="M867.6,587.3c-2.2,0-4.1-0.6-5.7-1.8c-1.6-1.2-2.4-2.8-2.4-4.9c0-2.1,0.8-3.7,2.4-4.9c1.6-1.2,3.5-1.7,5.7-1.7
		c2.2,0,4,0.6,5.6,1.7c1.6,1.2,2.4,2.8,2.4,4.9c0,2.1-0.8,3.8-2.4,4.9C871.7,586.7,869.8,587.3,867.6,587.3z M860.9,651.7v-54.4
		h13.3v54.4H860.9z"/>
	<path fill='#F9A70B' d="M914.4,652.8c-5.7,0-10.8-1.2-15.2-3.5s-7.8-5.7-10.3-9.9c-2.5-4.3-3.7-9.3-3.7-15c0-5.7,1.2-10.6,3.7-14.8
		c2.5-4.2,5.9-7.4,10.3-9.7s9.5-3.4,15.2-3.4c4.3,0,8.1,0.6,11.4,1.9s6.1,2.9,8.4,5c2.3,2.1,4,4.4,5.2,6.9s1.8,5,1.8,7.5
		c0,0.1,0,0.1,0,0.2s0,0.1,0,0.2h-13.4c0-0.2,0-0.4-0.1-0.6c0-0.2-0.1-0.4-0.1-0.6c-0.3-1.7-1-3.3-2.1-4.7s-2.6-2.6-4.5-3.4
		c-1.9-0.9-4.1-1.3-6.8-1.3c-2.8,0-5.4,0.6-7.8,1.9c-2.3,1.2-4.2,3.1-5.6,5.6c-1.4,2.5-2.1,5.6-2.1,9.3c0,3.7,0.7,6.8,2,9.4
		c1.4,2.6,3.2,4.5,5.6,5.9c2.3,1.3,4.9,2,7.8,2c3,0,5.5-0.5,7.4-1.4s3.4-2.2,4.4-3.8c1-1.6,1.6-3.3,1.7-5.2h13.4
		c0,2.5-0.6,5.1-1.7,7.6c-1.2,2.5-2.9,4.9-5.1,7c-2.3,2.1-5,3.8-8.4,5.1C922.6,652.2,918.8,652.8,914.4,652.8z"/>
	<path fill='#F9A70B' d="M957.3,628.9v-9.6h38l-1.5,2.6c0-0.2,0-0.4,0-0.7s0-0.5,0-0.6c0-2.4-0.5-4.6-1.6-6.6c-1.1-2.1-2.7-3.7-4.8-5
		c-2.1-1.3-4.9-1.9-8.2-1.9c-3.3,0-6.1,0.7-8.5,2.1c-2.4,1.4-4.3,3.4-5.6,6c-1.3,2.6-2,5.7-2,9.3c0,3.7,0.6,6.9,1.9,9.6
		c1.3,2.7,3.1,4.7,5.6,6.1c2.4,1.4,5.4,2.1,8.9,2.1c2.4,0,4.5-0.2,6.2-0.7c1.7-0.4,3.2-1,4.3-1.8c1.1-0.8,1.9-1.6,2.5-2.5
		c0.6-0.9,0.9-1.8,1-2.7h13.4c-0.2,2.3-1,4.5-2.3,6.7s-3.1,4.1-5.5,5.9c-2.4,1.8-5.2,3.2-8.6,4.2c-3.4,1-7.2,1.6-11.5,1.6
		c-5.8,0-10.9-1.2-15.3-3.6c-4.4-2.4-7.8-5.7-10.2-10c-2.4-4.3-3.7-9.1-3.7-14.6c0-5.6,1.2-10.6,3.7-14.8c2.5-4.2,5.9-7.5,10.3-9.9
		c4.4-2.4,9.5-3.6,15.2-3.6c5.9,0,10.9,1.2,15.2,3.6c4.3,2.4,7.6,5.7,9.9,10c2.3,4.2,3.5,9.2,3.5,14.8c0,0.7,0,1.5-0.1,2.3
		s-0.1,1.4-0.2,1.8H957.3z"/>
</g>
<g class="st2">
	<path class="st3" d="M446.8,739.9v-28.7h5.1v28.7H446.8z"/>
	<path class="st3" d="M466.3,740.3c-2,0-3.8-0.3-5.3-1c-1.5-0.6-2.7-1.6-3.5-2.9c-0.8-1.3-1.3-2.9-1.3-4.9c0-0.2,0-0.4,0-0.6
		c0-0.2,0-0.4,0-0.6h5.1c0,0.2,0,0.4,0,0.5c0,0.2,0,0.3,0,0.6c0,1.6,0.4,2.7,1.3,3.5c0.9,0.8,2.1,1.2,3.8,1.2c1.7,0,3-0.3,3.8-0.8
		s1.3-1.5,1.3-2.7c0-0.9-0.3-1.7-0.9-2.3c-0.6-0.6-1.4-1.2-2.5-1.7c-1.1-0.5-2.2-0.9-3.6-1.3c-1.5-0.5-2.9-1.1-4.1-1.8
		s-2.2-1.7-3-2.8s-1.1-2.5-1.1-4.2s0.4-3.1,1.3-4.2s2-2,3.5-2.6c1.5-0.6,3.2-0.9,5.1-0.9c2,0,3.7,0.3,5.3,0.9
		c1.5,0.6,2.7,1.6,3.6,2.8c0.9,1.2,1.3,2.8,1.3,4.6c0,0.2,0,0.5,0,0.6c0,0.2,0,0.4,0,0.6h-5.1c0-0.2,0-0.3,0-0.5s0-0.3,0-0.5
		c0-1.5-0.4-2.6-1.2-3.3c-0.8-0.7-2-1.1-3.7-1.1c-1.6,0-2.8,0.3-3.7,0.8s-1.3,1.4-1.3,2.7c0,0.9,0.3,1.7,0.9,2.3
		c0.6,0.6,1.4,1.1,2.4,1.6s2.2,0.9,3.5,1.4c1.7,0.6,3.2,1.2,4.5,1.9c1.3,0.7,2.2,1.6,2.9,2.7c0.7,1.1,1,2.4,1,4.1
		c0,1.7-0.4,3.1-1.3,4.3c-0.9,1.2-2,2.1-3.6,2.7S468.3,740.3,466.3,740.3z"/>
</g>
<g class="st2">
	<path class="st3" d="M518.5,707.6h-11.9l2.5-3.4v35.7h-6.8v-35.7l2.6,3.4h-12v-5.4h25.7V707.6z"/>
	<path class="st3" d="M551.8,702.2v37.7h-6.8v-18.4l3,2.3h-20.8l3-2.3v18.4h-6.8v-37.7h6.8v18.6l-3-2.4h20.8l-3,2.3v-18.6H551.8z"/>
	<path class="st3" d="M562.1,707.6l3-3.4v16.1l-1.6-2h14.1v5.4h-14.1l1.6-2v16.2l-3-3.4h18.4v5.4h-22.2v-37.7h22.2v5.4H562.1z"/>
	<path class="st3" d="M612.2,740.5c-2.7,0-5-0.4-7-1.3s-3.5-2.1-4.7-3.8c-1.1-1.7-1.7-3.8-1.7-6.4c0-0.3,0-0.5,0-0.8
		c0-0.2,0-0.5,0-0.8h6.7c0,0.3,0,0.5,0,0.7s0,0.5,0,0.7c0,2,0.6,3.6,1.7,4.6c1.1,1,2.8,1.5,4.9,1.5c2.2,0,3.9-0.4,5.1-1.1
		c1.2-0.7,1.8-1.9,1.8-3.5c0-1.2-0.4-2.2-1.2-3s-1.9-1.6-3.3-2.2c-1.4-0.6-3-1.2-4.7-1.8c-2-0.6-3.8-1.4-5.4-2.4
		c-1.6-1-2.9-2.2-3.9-3.7c-1-1.5-1.5-3.3-1.5-5.5c0-2.2,0.6-4,1.7-5.5c1.1-1.5,2.7-2.7,4.6-3.5c2-0.8,4.2-1.2,6.7-1.2
		c2.6,0,4.9,0.4,6.9,1.2c2,0.8,3.5,2,4.7,3.7c1.1,1.6,1.7,3.6,1.7,6.1c0,0.3,0,0.6,0,0.8c0,0.2,0,0.5,0,0.8h-6.8c0-0.2,0-0.4,0-0.7
		c0-0.2,0-0.5,0-0.7c0-1.9-0.5-3.4-1.6-4.3s-2.7-1.4-4.8-1.4c-2.1,0-3.7,0.4-4.8,1.1c-1.1,0.7-1.7,1.9-1.7,3.5c0,1.2,0.4,2.2,1.2,3
		c0.8,0.8,1.8,1.5,3.2,2.1c1.3,0.6,2.9,1.2,4.6,1.8c2.3,0.8,4.2,1.6,5.9,2.5s2.9,2.1,3.8,3.5c0.9,1.4,1.4,3.2,1.4,5.4
		c0,2.2-0.6,4.1-1.7,5.6c-1.1,1.5-2.7,2.7-4.7,3.5S614.9,740.5,612.2,740.5z"/>
	<path class="st3" d="M634.9,707.6l3-3.4v16.1l-1.6-2h14.1v5.4h-14.1l1.6-2v16.2l-3-3.4h18.4v5.4h-22.2v-37.7h22.2v5.4H634.9z"/>
	<path class="st3" d="M659.9,739.9v-37.7h14.5c3.8,0,6.7,0.9,8.6,2.6c1.9,1.7,2.9,4.3,2.9,7.7c0,2-0.4,3.7-1.1,5
		c-0.8,1.4-1.7,2.4-2.7,3.2c-1.1,0.8-2.1,1.2-3.1,1.3c1,0.1,1.9,0.3,2.9,0.8c0.9,0.4,1.7,1.1,2.3,2.1s0.9,2.2,0.9,3.8
		c0,1.3,0,2.6,0,3.8s0,2.5,0,3.8c0,0.8,0.1,1.5,0.2,2.2c0.1,0.7,0.3,1.1,0.5,1.4h-6.8c-0.2-0.3-0.3-0.8-0.4-1.4
		c-0.1-0.6-0.2-1.4-0.2-2.2c0-1.2,0-2.3,0-3.4c0-1.1,0-2.3,0-3.4c0-1.6-0.4-2.7-1.3-3.5c-0.9-0.8-2.2-1.2-3.9-1.2h-8.3l1.8-2.3v17.5
		H659.9z M666.5,721.9l-1.8-2.5h8.4c1.1,0,2.1-0.3,3-0.8s1.6-1.2,2.1-2.2c0.5-0.9,0.8-2,0.8-3.3c0-1.8-0.5-3.2-1.6-4.1
		s-2.6-1.4-4.5-1.4h-8.3l2-2.4V721.9z"/>
	<path class="st3" d="M698,740l-9.6-37.9h7.4l7.4,33.4h-0.3l7.3-33.4h7.4L708,740H698z"/>
	<path class="st3" d="M722.3,739.9v-37.7h6.7v37.7H722.3z"/>
	<path class="st3" d="M765.4,726.3c0,1.6-0.3,3.2-0.9,4.9c-0.6,1.7-1.5,3.2-2.7,4.6c-1.2,1.4-2.8,2.5-4.6,3.4
		c-1.9,0.9-4,1.3-6.5,1.3c-3.4,0-6.3-0.8-8.7-2.5c-2.4-1.7-4.2-4-5.5-6.9c-1.3-2.9-1.9-6.3-1.9-10.1c0-3.8,0.6-7.2,1.9-10.1
		c1.3-2.9,3.1-5.2,5.5-6.9c2.4-1.7,5.3-2.5,8.7-2.5c2.8,0,5.2,0.5,7.2,1.6s3.6,2.5,4.8,4.1c1.2,1.7,2,3.5,2.4,5.3
		c0.3,1.1,0.4,2.1,0.4,3.1h-6.8c0-0.5,0-1-0.1-1.5c-0.2-1.3-0.6-2.5-1.3-3.5c-0.7-1.1-1.6-1.9-2.7-2.5c-1.1-0.6-2.4-0.9-3.9-0.9
		c-1.8,0-3.4,0.5-4.8,1.5c-1.4,1-2.5,2.5-3.2,4.6c-0.8,2-1.2,4.6-1.2,7.8c0,3.1,0.4,5.7,1.2,7.7s1.9,3.6,3.2,4.6
		c1.4,1,3,1.5,4.8,1.5c1.3,0,2.4-0.2,3.4-0.7s1.8-1.1,2.5-1.9c0.7-0.8,1.2-1.7,1.5-2.8s0.5-2.1,0.5-3.2H765.4z"/>
	<path class="st3" d="M774.7,707.6l3-3.4v16.1l-1.6-2h14.1v5.4h-14.1l1.6-2v16.2l-3-3.4h18.4v5.4h-22.2v-37.7h22.2v5.4H774.7z"/>
</g>
</svg>
