<svg width="18" height="20" viewBox="0 0 18 20" fill="none" xmlns="http://www.w3.org/2000/svg">
<path d="M1.12402 18.876H5.46878V11.6023C5.46878 11.3205 5.56407 11.0844 5.75466 10.8938C5.94523 10.7032 6.18138 10.6079 6.46311 10.6079H10.9592C11.2409 10.6079 11.4771 10.7032 11.6676 10.8938C11.8582 11.0844 11.9535 11.3205 11.9535 11.6023V18.876H16.2983V7.08459C16.2983 6.94048 16.2668 6.80989 16.2037 6.6928C16.1407 6.57571 16.0551 6.47214 15.947 6.38208L9.22451 1.31317C9.08041 1.18707 8.90928 1.12402 8.71115 1.12402C8.51302 1.12402 8.3419 1.18707 8.19779 1.31317L1.47528 6.38208C1.36721 6.47214 1.28164 6.57571 1.21858 6.6928C1.15554 6.80989 1.12402 6.94048 1.12402 7.08459V18.876ZM0 18.4545V7.08459C0 6.77558 0.0686708 6.48284 0.206012 6.20638C0.343377 5.92992 0.542199 5.68766 0.80248 5.4796L7.525 0.383678C7.89749 0.127894 8.29144 0 8.70683 0C9.1222 0 9.51903 0.127894 9.89731 0.383678L16.6198 5.4796C16.8801 5.68766 17.0789 5.92992 17.2163 6.20638C17.3536 6.48284 17.4223 6.77558 17.4223 7.08459V18.4545C17.4223 18.8696 17.2685 19.231 16.9609 19.5386C16.6533 19.8462 16.2919 20 15.8768 20H11.8238C11.5421 20 11.306 19.9047 11.1154 19.7141C10.9248 19.5236 10.8295 19.2874 10.8295 19.0057V11.732H6.5928V19.0057C6.5928 19.2874 6.49751 19.5236 6.30694 19.7141C6.11635 19.9047 5.8802 20 5.5985 20H1.54553C1.13041 20 0.76904 19.8462 0.46141 19.5386C0.153803 19.231 0 18.8696 0 18.4545Z" fill="#303F4A"/>
</svg>
