<svg width="19" height="18" viewBox="0 0 19 18" fill="none" xmlns="http://www.w3.org/2000/svg">
<path d="M0.923392 4.01698C0.806148 4.01698 0.706276 3.97687 0.623776 3.89663C0.541259 3.8164 0.5 3.71698 0.5 3.59838V0.74059C0.5 0.530765 0.570971 0.354872 0.712913 0.212913C0.854872 0.0709709 1.03076 0 1.24059 0H4.09838C4.21698 0 4.3164 0.039654 4.39663 0.118962C4.47687 0.19827 4.51698 0.296546 4.51698 0.41379C4.51698 0.531034 4.47687 0.630915 4.39663 0.713433C4.3164 0.79595 4.21698 0.837209 4.09838 0.837209H1.33721V3.59838C1.33721 3.71698 1.29756 3.8164 1.21825 3.89663C1.13892 3.97687 1.04064 4.01698 0.923392 4.01698ZM1.24059 18C1.03076 18 0.854872 17.929 0.712913 17.7871C0.570971 17.6451 0.5 17.4692 0.5 17.2594V14.4016C0.5 14.283 0.539654 14.1836 0.618962 14.1034C0.69827 14.0231 0.796546 13.983 0.913791 13.983C1.03103 13.983 1.13092 14.0231 1.21343 14.1034C1.29595 14.1836 1.33721 14.283 1.33721 14.4016V17.1628H4.09838C4.21698 17.1628 4.3164 17.2024 4.39663 17.2818C4.47687 17.3611 4.51698 17.4594 4.51698 17.5766C4.51698 17.6939 4.47687 17.7937 4.39663 17.8762C4.3164 17.9587 4.21698 18 4.09838 18H1.24059ZM14.9016 18C14.783 18 14.6836 17.9603 14.6034 17.881C14.5231 17.8017 14.483 17.7035 14.483 17.5862C14.483 17.469 14.5231 17.3691 14.6034 17.2866C14.6836 17.2041 14.783 17.1628 14.9016 17.1628H17.6628V14.4016C17.6628 14.283 17.7024 14.1836 17.7818 14.1034C17.8611 14.0231 17.9593 13.983 18.0766 13.983C18.1939 13.983 18.2937 14.0231 18.3762 14.1034C18.4587 14.1836 18.5 14.283 18.5 14.4016V17.2594C18.5 17.4692 18.429 17.6451 18.2871 17.7871C18.1451 17.929 17.9692 18 17.7594 18H14.9016ZM18.0862 4.01698C17.969 4.01698 17.8691 3.97687 17.7866 3.89663C17.7041 3.8164 17.6628 3.71698 17.6628 3.59838V0.837209H14.9016C14.783 0.837209 14.6836 0.797555 14.6034 0.718247C14.5231 0.638939 14.483 0.540654 14.483 0.423392C14.483 0.306148 14.5231 0.206277 14.6034 0.123777C14.6836 0.0412592 14.783 0 14.9016 0H17.7594C17.9692 0 18.1451 0.0709709 18.2871 0.212913C18.429 0.354872 18.5 0.530765 18.5 0.74059V3.59838C18.5 3.71698 18.4603 3.8164 18.381 3.89663C18.3017 3.97687 18.2035 4.01698 18.0862 4.01698ZM13.9396 14.3936V13.4396H14.8936V14.3936H13.9396ZM13.9396 12.4857V11.5317H14.8936V12.4857H13.9396ZM12.9857 13.4396V12.4857H13.9396V13.4396H12.9857ZM12.0317 14.3936V13.4396H12.9857V14.3936H12.0317ZM11.0778 13.4396V12.4857H12.0317V13.4396H11.0778ZM12.9857 11.5317V10.5778H13.9396V11.5317H12.9857ZM12.0317 12.4857V11.5317H12.9857V12.4857H12.0317ZM11.0778 11.5317V10.5778H12.0317V11.5317H11.0778ZM11.821 7.42217C11.6113 7.42217 11.435 7.35126 11.2922 7.20942C11.1493 7.06756 11.0778 6.89178 11.0778 6.68208V3.72174C11.0778 3.51205 11.1487 3.33576 11.2906 3.19286C11.4324 3.04997 11.6082 2.97853 11.8179 2.97853H14.7783C14.988 2.97853 15.1642 3.04946 15.3071 3.19131C15.45 3.33317 15.5215 3.50894 15.5215 3.71862V6.67897C15.5215 6.88867 15.4505 7.06497 15.3087 7.20785C15.1668 7.35073 14.9911 7.42217 14.7814 7.42217H11.821ZM4.22174 15.0215C4.01205 15.0215 3.83576 14.9505 3.69285 14.8087C3.54997 14.6669 3.47853 14.4911 3.47853 14.2814V11.321C3.47853 11.1113 3.54946 10.935 3.69131 10.7922C3.83315 10.6493 4.00892 10.5778 4.21862 10.5778H7.17897C7.38867 10.5778 7.56497 10.6487 7.70785 10.7906C7.85073 10.9324 7.92217 11.1082 7.92217 11.3179V14.2783C7.92217 14.488 7.85126 14.6642 7.70942 14.8071C7.56756 14.95 7.39178 15.0215 7.18208 15.0215H4.22174ZM4.22174 7.42217C4.01205 7.42217 3.83576 7.35126 3.69285 7.20942C3.54997 7.06756 3.47853 6.89178 3.47853 6.68208V3.72174C3.47853 3.51205 3.54946 3.33576 3.69131 3.19286C3.83315 3.04997 4.00892 2.97853 4.21862 2.97853H7.17897C7.38867 2.97853 7.56497 3.04946 7.70785 3.19131C7.85073 3.33317 7.92217 3.50894 7.92217 3.71862V6.67897C7.92217 6.88867 7.85126 7.06497 7.70942 7.20785C7.56756 7.35073 7.39178 7.42217 7.18208 7.42217H4.22174ZM4.09035 14.4097H7.31038V11.1896H4.09035V14.4097ZM4.09035 6.81038H7.31038V3.59035H4.09035V6.81038ZM11.6896 6.81038H14.9097V3.59035H11.6896V6.81038Z" fill="#303F4A"/>
</svg>
