<svg width="19" height="20" viewBox="0 0 19 20" fill="none" xmlns="http://www.w3.org/2000/svg">
<path d="M5.279 20C4.86559 20 4.52 19.8591 4.24223 19.5774C3.96444 19.2956 3.82554 18.948 3.82554 18.5346C3.82554 18.1212 3.96642 17.7756 4.24818 17.4978C4.52994 17.22 4.87752 17.0811 5.29093 17.0811C5.70433 17.0811 6.04993 17.222 6.32773 17.5038C6.6055 17.7855 6.74439 18.1331 6.74439 18.5465C6.74439 18.9599 6.60351 19.3055 6.32175 19.5833C6.04001 19.8611 5.69243 20 5.279 20ZM16.7125 20C16.2991 20 15.9535 19.8591 15.6757 19.5774C15.3979 19.2956 15.259 18.948 15.259 18.5346C15.259 18.1212 15.3999 17.7756 15.6817 17.4978C15.9634 17.22 16.311 17.0811 16.7244 17.0811C17.1378 17.0811 17.4834 17.222 17.7612 17.5038C18.039 17.7855 18.1779 18.1331 18.1779 18.5465C18.1779 18.9599 18.037 19.3055 17.7553 19.5833C17.4735 19.8611 17.1259 20 16.7125 20ZM4.32859 3.5924L6.96027 9.67183H14.9978C15.1274 9.67183 15.2425 9.63945 15.3432 9.57469C15.444 9.50992 15.5304 9.41997 15.6023 9.30484L17.7526 4.19688C17.8389 4.03857 17.8461 3.89825 17.7742 3.77592C17.7022 3.65357 17.5799 3.5924 17.4072 3.5924H4.32859ZM3.97667 2.6943H18.0311C18.3506 2.6943 18.582 2.8044 18.7252 3.0246C18.8684 3.2448 18.886 3.48157 18.7781 3.73489L16.4295 9.63324C16.3113 9.9094 16.1316 10.1346 15.8905 10.3087C15.6495 10.4829 15.3735 10.57 15.0626 10.57H6.42702L5.11875 12.8497C5.0036 13.0224 5 13.2095 5.10794 13.411C5.21588 13.6125 5.3778 13.7133 5.5937 13.7133H17.7288C17.8568 13.7133 17.9636 13.7556 18.0493 13.8402C18.135 13.9247 18.1779 14.0302 18.1779 14.1564C18.1779 14.2827 18.135 14.3901 18.0493 14.4786C17.9636 14.5671 17.8568 14.6114 17.7288 14.6114H5.62177C5.00432 14.6114 4.55779 14.3667 4.28217 13.8774C4.00654 13.3881 4.02202 12.8958 4.32859 12.4007L5.96069 9.6157L2.19773 0.898099H0.44905C0.321089 0.898099 0.214253 0.855813 0.128541 0.771242C0.0428469 0.686671 0 0.581248 0 0.454972C0 0.328676 0.0428469 0.221279 0.128541 0.132779C0.214272 0.04426 0.321108 0 0.44905 0H2.28196C2.45898 0 2.60541 0.0453355 2.72127 0.136006C2.83714 0.226677 2.93466 0.343982 3.01382 0.487921L3.97667 2.6943Z" fill="#303F4A"/>
</svg>
