<svg width="18" height="20" viewBox="0 0 18 20" fill="none" xmlns="http://www.w3.org/2000/svg">
<path d="M1.67356 20C1.07893 20 0.651345 19.8747 0.390807 19.6241C0.130269 19.3736 0 18.941 0 18.3264V16.0643C0 15.8268 0.0816061 15.6264 0.244818 15.4632C0.408031 15.3 0.60841 15.2184 0.845956 15.2184H2.86896V0.303453C2.86896 0.214554 2.89962 0.147881 2.96092 0.103432C3.02223 0.059003 3.09502 0.0636064 3.17929 0.11724L4.09885 0.737922C4.16781 0.776235 4.24367 0.79539 4.32643 0.79539C4.40919 0.79539 4.48505 0.776235 4.554 0.737922L5.5724 0.05747C5.64137 0.0191574 5.71724 0 5.8 0C5.88276 0 5.95862 0.0191574 6.02758 0.05747L7.07585 0.737922C7.14483 0.776235 7.2207 0.79539 7.30346 0.79539C7.3862 0.79539 7.46206 0.776235 7.53103 0.737922L8.54943 0.05747C8.61838 0.0191574 8.69424 0 8.777 0C8.85976 0 8.93563 0.0191574 9.00461 0.05747L10.0529 0.737922C10.1218 0.776235 10.1977 0.79539 10.2805 0.79539C10.3632 0.79539 10.4391 0.776235 10.508 0.737922L11.5563 0.05747C11.6253 0.0191574 11.7012 0 11.7839 0C11.8667 0 11.9425 0.0191574 12.0115 0.05747L13.0299 0.737922C13.0989 0.776235 13.1747 0.79539 13.2575 0.79539C13.3402 0.79539 13.4161 0.776235 13.4851 0.737922L14.5333 0.05747C14.6023 0.0191574 14.6782 0 14.7609 0C14.8437 0 14.9195 0.0191574 14.9885 0.05747L16.0069 0.737922C16.0759 0.776235 16.1517 0.79539 16.2345 0.79539C16.3172 0.79539 16.3931 0.776235 16.4621 0.737922L17.3816 0.11724C17.4659 0.0636064 17.5387 0.059003 17.6 0.103432C17.6613 0.147881 17.6919 0.214554 17.6919 0.303453V17.9678C17.6919 18.5824 17.5019 19.0747 17.1218 19.4448C16.7418 19.8149 16.2544 20 15.6598 20H1.67356ZM15.6598 19.0437C15.9785 19.0437 16.2375 18.949 16.4368 18.7598C16.636 18.5705 16.7356 18.3065 16.7356 17.9678V1.82989H3.82529V15.2184H13.7379C13.9755 15.2184 14.1759 15.3 14.3391 15.4632C14.5023 15.6264 14.5839 15.8268 14.5839 16.0643V17.9678C14.5839 18.3065 14.6835 18.5705 14.8828 18.7598C15.082 18.949 15.341 19.0437 15.6598 19.0437ZM6.19771 4.57932H10.9149C11.0452 4.57932 11.1575 4.62645 11.2517 4.7207C11.346 4.81494 11.3931 4.9272 11.3931 5.05748C11.3931 5.18776 11.346 5.30001 11.2517 5.39425C11.1575 5.48851 11.0452 5.53564 10.9149 5.53564H6.19771C6.06743 5.53564 5.95516 5.48851 5.86091 5.39425C5.76667 5.30001 5.71955 5.18776 5.71955 5.05748C5.71955 4.9272 5.76667 4.81494 5.86091 4.7207C5.95516 4.62645 6.06743 4.57932 6.19771 4.57932ZM6.19771 8.16552H10.9149C11.0452 8.16552 11.1575 8.21265 11.2517 8.30691C11.346 8.40115 11.3931 8.5134 11.3931 8.64368C11.3931 8.77396 11.346 8.88622 11.2517 8.98046C11.1575 9.07471 11.0452 9.12184 10.9149 9.12184H6.19771C6.06743 9.12184 5.95516 9.07471 5.86091 8.98046C5.76667 8.88622 5.71955 8.77396 5.71955 8.64368C5.71955 8.5134 5.76667 8.40115 5.86091 8.30691C5.95516 8.21265 6.06743 8.16552 6.19771 8.16552ZM14.0874 5.85747C13.9004 5.85747 13.7203 5.77586 13.5471 5.61265C13.3739 5.44944 13.2873 5.26438 13.2873 5.05748C13.2873 4.85057 13.3739 4.66551 13.5471 4.5023C13.7203 4.33909 13.9004 4.25748 14.0874 4.25748C14.2942 4.25748 14.4793 4.33909 14.6425 4.5023C14.8057 4.66551 14.8874 4.85057 14.8874 5.05748C14.8874 5.26438 14.8057 5.44944 14.6425 5.61265C14.4793 5.77586 14.2942 5.85747 14.0874 5.85747ZM14.0874 9.44368C13.9004 9.44368 13.7203 9.36207 13.5471 9.19886C13.3739 9.03564 13.2873 8.85059 13.2873 8.64368C13.2873 8.43678 13.3739 8.25172 13.5471 8.08851C13.7203 7.92529 13.9004 7.84369 14.0874 7.84369C14.2942 7.84369 14.4793 7.92529 14.6425 8.08851C14.8057 8.25172 14.8874 8.43678 14.8874 8.64368C14.8874 8.85059 14.8057 9.03564 14.6425 9.19886C14.4793 9.36207 14.2942 9.44368 14.0874 9.44368ZM1.67356 19.0437H13.6276V16.1747H0.956322V18.3264C0.956322 18.6651 0.991188 18.8693 1.06092 18.9391C1.13065 19.0088 1.33487 19.0437 1.67356 19.0437Z" fill="#303F4A"/>
</svg>
