<svg width="21" height="18" viewBox="0 0 21 18" fill="none" xmlns="http://www.w3.org/2000/svg">
<path d="M9.57612 18C9.45871 18 9.3603 17.9607 9.28088 17.8822C9.20146 17.8037 9.16175 17.7065 9.16175 17.5904C9.16175 17.4743 9.20146 17.3755 9.28088 17.2938C9.3603 17.2121 9.45871 17.1713 9.57612 17.1713H20.3495C20.4669 17.1713 20.5654 17.2105 20.6448 17.289C20.7242 17.3676 20.7639 17.4648 20.7639 17.5809C20.7639 17.697 20.7242 17.7958 20.6448 17.8775C20.5654 17.9592 20.4669 18 20.3495 18H9.57612ZM10.3789 15.5557C10.3789 14.3737 10.7785 13.3511 11.5776 12.4881C12.3766 11.625 13.3669 11.1342 14.5485 11.0156V10.8204C14.5485 10.738 14.5882 10.6484 14.6676 10.5514C14.747 10.4545 14.8454 10.406 14.9628 10.406C15.0452 10.406 15.1348 10.4545 15.2318 10.5514C15.3287 10.6484 15.3772 10.738 15.3772 10.8204V11.0415C16.53 11.1464 17.5088 11.6304 18.3136 12.4934C19.1184 13.3564 19.5208 14.3772 19.5208 15.5557H10.3789ZM11.2615 14.7209H18.6323C18.4238 13.8763 17.982 13.1784 17.3068 12.6272C16.6316 12.0761 15.8503 11.8005 14.9628 11.8005C14.0558 11.8005 13.2642 12.0761 12.5882 12.6272C11.9122 13.1784 11.47 13.8763 11.2615 14.7209ZM0.5 8.35016V1.84784C0.5 1.60069 0.582959 1.39414 0.748876 1.22819C0.914829 1.06225 1.12139 0.979283 1.36856 0.979283H3.80094C4.13828 0.979283 4.38963 1.05664 4.55498 1.21135C4.72032 1.36608 4.74987 1.59484 4.64362 1.89764V2.29607L11.6738 0.0549461C11.8239 0.0164277 11.9687 -0.0018395 12.1081 0.000145986C12.2476 0.00214874 12.3923 0.0224009 12.5424 0.060902L18.8794 2.00522C18.9669 2.03262 19.0359 2.08228 19.0865 2.15421C19.137 2.22613 19.1622 2.30662 19.1622 2.39568V2.17656C19.1622 2.96621 18.8594 3.62812 18.2538 4.16228C17.6482 4.69645 16.9337 4.96353 16.1103 4.96353H14.3094V4.9476C14.3094 5.43368 14.1557 5.85256 13.8482 6.20423C13.5408 6.55592 13.1473 6.81835 12.6679 6.99152L6.55606 9.13507C6.47903 9.16959 6.39535 9.19217 6.30504 9.20279C6.21474 9.21341 6.13771 9.21871 6.07395 9.21871H1.36977C1.11661 9.21871 0.908363 9.13575 0.745018 8.96981C0.581655 8.80386 0.5 8.59731 0.5 8.35016ZM1.3287 5.099V8.38999H3.81487V1.80801H1.3287V5.099ZM4.64362 5.79624V8.38999H6.21341L13.0424 5.92772C13.1763 5.88311 13.2829 5.80781 13.362 5.70182C13.4411 5.59584 13.4807 5.47592 13.4807 5.34205V4.96353H10.3949L8.42069 5.68669C8.32506 5.73317 8.2192 5.73166 8.10311 5.68216C7.98702 5.63268 7.90827 5.5638 7.86687 5.47552C7.82039 5.36662 7.8152 5.25197 7.85128 5.13158C7.88735 5.01117 7.95895 4.92793 8.06608 4.88185L10.1618 4.1348H16.1103C16.5008 4.1348 16.9407 4.00343 17.4301 3.74069C17.9195 3.47794 18.1907 3.1146 18.2439 2.65069L12.1181 0.811958L4.64362 3.20249V5.79624Z" fill="#EE2225"/>
</svg>
